<svg id="Layer_1" data-name="Layer 1" xmlns="http://www.w3.org/2000/svg" viewBox="0 0 488.64 72.48"><defs><style>.cls-1,.cls-3{fill:#fff;}.cls-2{fill:#6e2b86;}.cls-3{font-size:38.73px;font-family:Audiowide-Regular, Audiowide;}.cls-4{fill:#84459a;}</style></defs><path class="cls-1" d="M103.61,131.82c-3.6-4.93-11.11-7.33-16.77-2.27-2.43,2.12-4.36,4.47-3.87,8,.46,3.34-1.25,5-4.13,6.47A103.4,103.4,0,0,1,54,152.88c-8.47,1.85-16.89,3.73-25.69,1.23a32.9,32.9,0,0,1-10.16-4.61c-3.65-2.61-4.4-5.3-5.51-9.38,2.81,1.3,4.39,2.23,6.09,2.79,3.17,1.05,6.35,2.35,9.62,2.72,10.68,1.23,20.89-1.14,30.8-5,1.8-.69,3.12-1.06,5.11,0,3.73,2,8.28,0,10.47-4.18a8,8,0,0,0-3-10.92A8.63,8.63,0,0,0,58.83,132c-.26,2.34-.78,3.52-3.35,4-3.08.61-6,2.18-9,3-3.65,1-7.38,2.28-11.11,2.43s-7.31-.75-10.86-1.64a20.76,20.76,0,0,1-7.25-3.15c-3.11-2.31-5.15-6.19-1.38-9.85a94.87,94.87,0,0,1,8.19-6.42c-.32-.35-10.83,2.46-14.5,6.53-4,4.4-5.07,12-2.48,17.3,4.31,8.76,12,13.15,20.88,15.49,9.08,2.38,18.41,1.6,27.46-.17a107.36,107.36,0,0,0,29.16-10.4c2.3-1.21,4.12-1.61,6.58-.82a11.28,11.28,0,0,0,12.3-4.13A9.89,9.89,0,0,0,103.61,131.82ZM67.18,129.5c2.2-.08,3.51.84,3.61,3.19a3.25,3.25,0,0,1-3.19,3.69A3.78,3.78,0,0,1,63.79,133,3.46,3.46,0,0,1,67.18,129.5Zm27.27,14.28a5.77,5.77,0,0,1-6-5.48c-.12-3.49,2.24-6.56,5.15-6.7a6.69,6.69,0,0,1,6.83,6C100.69,140.3,97.38,143.74,94.45,143.78Z" transform="translate(-5.68 -88.76)"/><path class="cls-2" d="M84.14,158.44c4.68-.82,9.65-1.36,14.44-2.59,8.08-2.06,15.45-9.77,16.31-18.2.81-8-4-16-11.87-18.29-1.83-.52-3.67-1-5.49-1.51-1.4-.42-4.11-1.22-5.16-2.29.2.38,8.49-.44,9.62-.28a21,21,0,0,1,18.45,17.78c2,10.67-4.66,21.31-15.77,24.92A33,33,0,0,1,84.14,158.44Z" transform="translate(-5.68 -88.76)"/><path class="cls-2" d="M98,105a16.2,16.2,0,0,0-10.88-2.14,6.2,6.2,0,0,1-5.8-1.91c-13.09-12.35-31.77-9.74-45.93-.77-6.13,3.89-9.56,9.44-7,17.14,6.78,5.84,14.52,5.78,22.58,3.69,3.22-.83,6.4-1.75,9.6-2.63C63,117,67,115.83,68,112.88c.28-.89.3-1.84.52-2.74a6.89,6.89,0,0,1,8.93-4.51,7.27,7.27,0,0,1,3.65,9.47A5.37,5.37,0,0,1,79,117.5a9.73,9.73,0,0,1-4.12.86c-7.46.6-13.59,4.54-20.67,6.12-7.38,1.65-14.57,2.09-21.94,0-2.46-.7-7.18-2.63-8.78-4.73a5.93,5.93,0,0,1-.84-1.8c-1.84-5.56-1.51-9.39,2.18-14.1A35.39,35.39,0,0,1,40.13,92.68a52.24,52.24,0,0,1,30.66-2.76,20.36,20.36,0,0,1,11.43,6.92,7.41,7.41,0,0,0,7.07,2.8,14.32,14.32,0,0,1,12.93,5.46,16.06,16.06,0,0,1,2,3.8C104.35,109.3,99.27,105.77,98,105Z" transform="translate(-5.68 -88.76)"/><text class="cls-3" transform="translate(142.03 47.18)">SERVICE<tspan class="cls-4" x="189.79" y="0">QUERY</tspan></text></svg>